<?xml version="1.0" encoding="utf-8"?>
<!-- Generator: Adobe Illustrator 22.1.0, SVG Export Plug-In . SVG Version: 6.00 Build 0)  -->
<svg version="1.1" id="Layer_1" xmlns="http://www.w3.org/2000/svg" xmlns:xlink="http://www.w3.org/1999/xlink" x="0px" y="0px"
	 viewBox="0 0 1600 400" style="enable-background:new 0 0 1600 400;" xml:space="preserve">
<style type="text/css">
	.st0{fill:rgba(130,204,221,.6);}
</style>
<g>
	<path class="st0" d="M822.9,99.2c-11,29.8-21.9,59.6-32.9,89.3c-15.2,41.2-30.4,82.4-45.5,123.7c-1.1,3-2.6,4.1-5.7,4.1
		c-25.5,0.1-51,0.3-76.5,0.7c-4.6,0.1-6.4-1.6-7.9-6c-10.7-29.9-21.8-59.6-32.6-89.4c-9.3-25.5-18.4-51.1-27.7-76.6
		c-9.4-25.9-18.9-51.7-28.4-77.5c-1.2-3.4-2.2-6.9-3.5-10.2c-2.7-6.9-2.5-7.2,5.2-7.2c15.6,0,31.2,0,46.9,0c36,0,72,0,108,0
		c7.1,0,7.3,0.4,5.2,7.1c-6.4,20.7-12.8,41.4-19,62.1c-1.2,3.9-2.9,5.5-7.1,5.4c-8.7-0.3-17.5-0.1-27.3-0.1
		c8.2,29.3,16.2,57.8,24.7,88c4.4-14.3,8.2-27,12-39.6c9-29.9,18-59.7,26.9-89.6c2.7-8.9,5.3-17.8,7.4-26.9c1.2-5.1,3.7-6.6,8.7-6.6
		c50.1,0.2,100.2,0.1,150.3,0.1c23.1,0,46.1,0,69.2,0c7.4,0,7.8,0.4,7.7,7.8c-0.3,20.6-0.7,41.1-0.8,61.7c0,4.2-1.6,5.1-5.4,5.1
		c-20.8-0.1-41.5-0.1-62.3,0c-2.3,0-4.5,0-7.5,0c0,8.5-0.2,16.4,0.2,24.3c0.1,1,3.2,2.7,5,2.7c11.8,0.2,23.6,0.1,35.4,0.1
		c2.1,0,4.1,0,7,0c0,2.5,0,4.5,0,6.6c0.2,16,0.5,32,0.8,48c0.1,6.1-0.8,6.8-6.8,6.7c-13.7-0.2-27.3-0.1-41.3-0.1c0,10,0,19.6,0,29.8
		c7.2,0,14,0,20.9,0c16.2-0.1,32.4-0.2,48.6-0.5c4.8-0.1,6.3,1.7,6.3,6.3c-0.2,20.8-0.3,41.5-0.2,62.3c0,4.8-1.7,6.2-6.3,6.2
		c-27.6-0.1-55.2,0-82.9-0.1c-20.4-0.1-40.7-0.4-61.1-0.7c-1.9,0-3.7-0.2-6.1-0.3c0-72.5,0-144.6,0-216.7
		C823.7,99.2,823.3,99.2,822.9,99.2z"/>
	<path class="st0" d="M255.4,51.8c0,23.9,0,47.6,0,72c-6.4,0-12.6,0-19.2,0c0,9.5,0,18.3,0,28.1c6,0,12,0,18,0c5,0,9.9-0.3,14.9,0.1
		c4.4,0.3,6-1.1,5.9-5.7c-0.3-21-0.2-41.9-0.2-62.9c0-10.4,0-20.9,0-31.7c7.5-0.6,14.7-1.5,21.8-1.5c18.7-0.2,37.3-0.1,56-0.1
		c7.3,0,7.1,0.2,7.1,7.3c-0.1,11.8,0.4,23.5,0.4,35.3c0.1,14.8,0.1,29.6-0.1,44.4c-0.3,31-0.8,62-0.9,93c-0.2,28.4,0,56.7,0,85.5
		c-28.1,0-55.8,0-84.1,0c0-33,0-65.9,0-99.1c-13.3,0-25.9,0-39.3,0c0,33.1,0,65.9,0,99.1c-28.2,0-55.7,0-83.6,0
		c0-87.9,0-175.6,0-263.9C186.4,51.8,220.8,51.8,255.4,51.8z"/>
	<path class="st0" d="M1158,215c22.6,33.8,44.7,67,67.5,101.2c-3.1,0.3-5.1,0.6-7.1,0.6c-15.8-0.1-31.6-0.4-47.4-0.5
		c-11.4,0-22.9,0.2-34.3,0.6c-4.7,0.2-7.6-1.3-10.3-5.3c-14-20.1-28.4-40-43.6-61.4c0,12.3,0,23.1,0,34c0,9-0.3,17.9,0.1,26.9
		c0.2,4.8-1.7,5.9-5.9,5.8c-16.6-0.3-33.1-0.6-49.7-0.6c-8,0-16,0.3-24,0.7c-4,0.2-5.8-1-5.8-5.5c0.1-50.5,0-101,0-151.4
		c0-34.1-0.1-68.2-0.1-102.3c0-7.4,0.1-7.6,7.8-7.5c8.2,0.2,16.3,0.9,24.5,0.9c21.1-0.1,42.3-0.9,63.4-0.7c18,0.2,35.7,2.7,52,10.9
		c28.9,14.4,46.1,36.9,48.8,69.8c1.5,18.7-0.2,36.8-8.2,54c-5.3,11.3-12.9,20.6-23.6,27.1C1160.7,213,1159.5,213.9,1158,215z
		 M1082.9,169.4c4.2-0.4,7.4-0.5,10.5-1c18.9-3.4,26.1-21.8,14.4-37.1c-5.6-7.3-14.2-8.2-22.5-9.2c-0.7-0.1-2.4,1.9-2.4,3
		C1082.8,139.4,1082.9,153.9,1082.9,169.4z"/>
	<path class="st0" d="M1398.9,50.4c0,3.1,0,5.8,0,8.6c0.1,20.5,0.2,41.1,0.3,61.6c0,8.7,0.1,8.7-8.8,8.7
		c-19.2,0.1-38.5-0.3-57.7,0.3c-25.5,0.8-46.2,23.1-48.6,47.7c-1,10.6,0,20.7,4.5,30.5c10.5,23,34,33.5,58,29.4c5.7-1,8-4.2,7.7-9.9
		c-0.3-4.5-0.1-9-0.1-14.2c-7.7,0-14.9,0-22,0c-7.2,0-14.4,0-22.4,0c0-6.2,0-11.9,0-17.5c0-13.1,0.1-26.3,0-39.4
		c0-3.2,1.2-4.5,4.3-4.4c37.7,0.3,75.4,0.5,113.1,0.8c0.3,0,0.7,0.3,1.9,0.8c0,8.1,0,16.6,0,25.1c-0.1,36,0,72-0.4,108
		c0,2.5-1.9,5.8-4,7.3c-18.6,14.1-39.8,22.1-62.6,26.3c-22.6,4.1-45.1,4-67.3-2.8c-26.6-8.2-48.6-23.2-66-44.9
		c-15.2-19-25-40.7-28.6-64.5c-5.9-38.5,1-74.5,25-106.3c20-26.4,46.4-42.3,78.8-48.3c10.1-1.8,20.4-2.7,30.6-3
		c19.4-0.5,38.9-0.1,58.3-0.1C1394.8,50.1,1396.5,50.3,1398.9,50.4z"/>
	<path class="st0" d="M458.3,213c0,9.1,0.1,17.4,0,25.8c-0.1,4.3,3,3.6,5.5,3.6c20.4,0,40.8,0,61.2,0c8.9,0,8.7,0,8.6,8.7
		c-0.2,20-0.3,39.9-0.1,59.9c0,4.2-0.8,5.9-5.2,5.9c-49.5-0.3-99-0.6-148.6-0.8c-0.6,0-1.1-0.2-2.6-0.5c0-4.7,0-9.5,0-14.4
		c-0.2-50.1-0.4-100.2-0.5-150.3c-0.1-32,0.1-64,0-95.9c0-3.5,1.5-4.8,4.7-4.8c7,0,14.1,0,21.1,0c41,0,81.9,0,122.9,0
		c8.4,0,8.3,0,8.3,8.4c0.1,20.3,0.1,40.7,0.3,61c0.1,4.8-2,5.7-6.2,5.7c-21.1-0.1-42.3,0.1-63.4-0.2c-4.8,0-6.4,1.4-6,6.2
		c0.4,4.5,0.2,9.1,0,13.7c-0.2,4.4,1.7,5.9,6.1,5.9c13.4-0.2,26.9-0.1,41.9-0.1c0,15.4,0,29.2,0,43.1c0,4-0.1,8,0.1,12
		c0.3,5.2-1.4,7.5-7.1,7.3C486.1,212.7,472.8,213,458.3,213z"/>
	<path class="st0" d="M1525.3,124.3c0,9.5,0,18.2,0,27.7c15.6,0,31.3,0,47.3,0c0,20.3,0,39.8,0,60.2c-15.6,0-31.3,0-47.3,0
		c0,10.6,0,20.4,0,30.8c24.9,0,49.6,0,74.7,0c0,24.5,0,48.4,0,72.7c-51.5,0-103,0-155,0c0-87.9,0-175.6,0-263.8c51.4,0,103,0,155,0
		c0,23.9,0,47.8,0,72.5C1575.3,124.3,1550.5,124.3,1525.3,124.3z"/>
	<path class="st0" d="M133.1,315.7c-28,0-55.5,0-83.8,0c0-63.8,0-127.3,0-191.4c-16.8,0-32.9,0-49.2,0c0-24.5,0-48.4,0-72.6
		c44.4,0,88.6,0,133.1,0C133.1,139.6,133.1,227.4,133.1,315.7z"/>
</g>
</svg>
